<svg width="35" height="35" viewBox="0 0 35 35" fill="none" xmlns="http://www.w3.org/2000/svg">
<g id="tg 1" clip-path="url(#clip0_1_44)">
<path id="Vector" d="M22.31 26.4C22.22 26.36 22.13 26.34 22.05 26.29C21.66 26.03 21.28 25.76 20.9 25.48C19.8 24.69 18.7 23.89 17.6 23.1C17.45 22.99 17.3 22.9 17.14 22.81C16.87 22.64 16.6 22.66 16.35 22.86C16.03 23.11 15.71 23.37 15.39 23.62C14.81 24.08 14.24 24.55 13.66 25.01C13.45 25.18 13.08 25.14 12.92 24.93C12.88 24.88 12.85 24.82 12.83 24.75C12.44 23.52 12.05 22.28 11.66 21.05C11.45 20.37 11.23 19.69 11.01 19.01C10.98 18.92 10.94 18.88 10.86 18.85C9.97003 18.51 9.08003 18.18 8.19003 17.84C7.55003 17.6 6.91003 17.34 6.27003 17.1C6.03003 17.01 5.93003 16.83 5.91003 16.59C5.90003 16.41 6.07003 16.19 6.27003 16.11C8.11003 15.39 9.94003 14.67 11.79 13.96C16.24 12.24 20.7 10.53 25.16 8.82C25.32 8.76 25.49 8.7 25.65 8.63C25.8 8.56 25.94 8.59 26.07 8.68C26.16 8.74 26.24 8.84 26.29 8.93C26.33 9 26.33 9.1 26.31 9.18C26.16 9.97 26 10.76 25.84 11.55C25.62 12.63 25.4 13.71 25.18 14.79C24.95 15.92 24.72 17.05 24.48 18.17C24.24 19.32 24 20.47 23.76 21.62C23.45 23.07 23.14 24.53 22.82 25.98C22.77 26.23 22.59 26.36 22.31 26.37C22.32 26.39 22.32 26.4 22.31 26.4ZM13.31 22.65C13.46 22.65 13.53 22.58 13.56 22.41C13.65 21.82 13.74 21.24 13.83 20.65C13.89 20.22 14.05 19.85 14.38 19.56C14.76 19.23 15.11 18.87 15.48 18.52C17.34 16.78 19.2 15.05 21.06 13.31C21.35 13.04 21.63 12.75 21.92 12.48C21.98 12.42 21.97 12.37 21.92 12.32C21.87 12.27 21.82 12.25 21.75 12.29C21.72 12.31 21.68 12.33 21.64 12.35C19.67 13.56 17.69 14.76 15.73 15.97C14.64 16.64 13.56 17.32 12.48 18.01C12.4 18.06 12.32 18.13 12.26 18.21C12.06 18.44 12.07 18.72 12.14 18.99C12.29 19.56 12.43 20.12 12.59 20.69C12.77 21.3 12.96 21.91 13.15 22.52C13.17 22.61 13.22 22.66 13.31 22.65Z" fill="#00A3FF"/>
<path id="Vector_2" d="M17.5 32.91C26.0107 32.91 32.91 26.0107 32.91 17.5C32.91 8.98929 26.0107 2.09 17.5 2.09C8.98932 2.09 2.09003 8.98929 2.09003 17.5C2.09003 26.0107 8.98932 32.91 17.5 32.91Z" stroke="#00A3FF" stroke-width="3" stroke-miterlimit="10"/>
</g>
<defs>
<clipPath id="clip0_1_44">
<rect width="35" height="35" fill="white"/>
</clipPath>
</defs>
</svg>
