<svg width="35" height="35" viewBox="0 0 35 35" fill="none" xmlns="http://www.w3.org/2000/svg">
<g id="wup 1" clip-path="url(#clip0_1_47)">
<path id="Vector" d="M9.03998 12.44C9.06998 11.54 9.23998 10.65 9.70998 9.83C10.05 9.24 10.49 8.73 11 8.3C11.24 8.1 11.55 8.03 11.86 8.04C12.21 8.05 12.57 8.1 12.92 8.11C13.1 8.11 13.24 8.2 13.35 8.36C13.66 8.77 13.74 9.26 13.92 9.72C14.15 10.31 14.33 10.91 14.54 11.5C14.66 11.83 14.77 12.16 14.9 12.48C15.04 12.84 14.89 13.14 14.72 13.43C14.49 13.84 14.18 14.17 13.86 14.52C13.75 14.64 13.64 14.76 13.54 14.88C13.34 15.11 13.36 15.36 13.49 15.6C13.67 15.93 13.84 16.27 14.05 16.59C14.57 17.42 15.14 18.21 15.84 18.9C16.36 19.41 16.91 19.87 17.5 20.29C17.91 20.58 18.35 20.8 18.79 21.04C18.96 21.14 19.13 21.24 19.31 21.33C19.69 21.52 19.97 21.44 20.21 21.09C20.26 21.02 20.32 20.96 20.37 20.9C20.71 20.55 21 20.16 21.31 19.79C21.41 19.67 21.49 19.52 21.59 19.4C21.79 19.14 22 19.08 22.31 19.19C22.67 19.32 23.02 19.47 23.33 19.7C23.46 19.79 23.62 19.85 23.76 19.93C24.45 20.28 25.1 20.71 25.79 21.06C25.92 21.13 26.03 21.23 26.15 21.32C26.27 21.41 26.3 21.53 26.3 21.67C26.31 22.14 26.22 22.6 26.1 23.06C25.94 23.68 25.63 24.19 25.13 24.6C24.83 24.84 24.5 25.02 24.19 25.22C23.58 25.62 22.87 25.69 22.18 25.77C21.69 25.83 21.22 25.7 20.76 25.55C20.03 25.31 19.32 25.03 18.62 24.71C18.21 24.52 17.78 24.36 17.38 24.14C16.89 23.88 16.4 23.6 15.95 23.28C15.36 22.86 14.8 22.4 14.28 21.9C13.67 21.31 13.1 20.69 12.58 20.03C11.98 19.28 11.43 18.48 10.92 17.66C10.66 17.24 10.4 16.82 10.16 16.39C9.52998 15.14 9.05998 13.87 9.03998 12.44Z" fill="#3AAA35"/>
<path id="Vector_2" d="M0.799988 34.16L5.31999 26.51L11.85 30.37" fill="#3AAA35"/>
<path id="Vector_3" d="M17.5 32.85C26.204 32.85 33.26 25.9776 33.26 17.5C33.26 9.02242 26.204 2.14999 17.5 2.14999C8.79598 2.14999 1.73999 9.02242 1.73999 17.5C1.73999 25.9776 8.79598 32.85 17.5 32.85Z" stroke="#3AAA35" stroke-width="3" stroke-miterlimit="10"/>
</g>
<defs>
<clipPath id="clip0_1_47">
<rect width="35" height="35" fill="white"/>
</clipPath>
</defs>
</svg>
