<svg width="52" height="50" viewBox="0 0 52 50" fill="none" xmlns="http://www.w3.org/2000/svg">
<g id="calendar" clip-path="url(#clip0_18_12)">
<path id="Vector" d="M47.7234 6.04248H3.87023C1.73276 6.04248 0 7.77524 0 9.91271V46.1298C0 48.2672 1.73276 50 3.87023 50H47.7234C49.8609 50 51.5936 48.2672 51.5936 46.1298V9.91271C51.5936 7.77524 49.8609 6.04248 47.7234 6.04248Z" fill="#3AAA35"/>
<path id="Vector_2" d="M38.5885 14.3425H37.4502V15.4808H38.5885V14.3425Z" fill="#3AAA35"/>
<path id="Vector_3" d="M43.7393 20.6602H7.8543C6.28263 20.6602 5.00854 21.9342 5.00854 23.5059V42.4587C5.00854 44.0303 6.28263 45.3044 7.8543 45.3044H43.7393C45.311 45.3044 46.5851 44.0303 46.5851 42.4587V23.5059C46.5851 21.9342 45.311 20.6602 43.7393 20.6602Z" fill="white"/>
<path id="Vector_4" d="M13.3276 0H7.99659V6.39347H13.3276V0Z" fill="#3AAA35"/>
<path id="Vector_5" d="M18.9717 24.3787H13.3276V30.0228H18.9717V24.3787Z" fill="#3AAA35"/>
<path id="Vector_6" d="M28.6189 24.3787H22.9748V30.0228H28.6189V24.3787Z" fill="#3AAA35"/>
<path id="Vector_7" d="M38.0194 24.3787H32.3753V30.0228H38.0194V24.3787Z" fill="#3AAA35"/>
<path id="Vector_8" d="M43.9196 0H38.5885V6.39347H43.9196V0Z" fill="#3AAA35"/>
<path id="Vector_9" d="M18.9717 33.7791H13.3276V39.4231H18.9717V33.7791Z" fill="#3AAA35"/>
<path id="Vector_10" d="M28.6189 33.7791H22.9748V39.4231H28.6189V33.7791Z" fill="#3AAA35"/>
<path id="Vector_11" d="M38.0194 33.7791H32.3753V39.4231H38.0194V33.7791Z" fill="#3AAA35"/>
</g>
<defs>
<clipPath id="clip0_18_12">
<rect width="51.5936" height="50" fill="white"/>
</clipPath>
</defs>
</svg>
