<svg width="14" height="18" viewBox="0 0 14 18" fill="none" xmlns="http://www.w3.org/2000/svg">
<g id="navigator" clip-path="url(#clip0_15_398)">
<path id="Vector" d="M0.646277 8.9603C-0.836412 6.18422 0.365896 2.98106 2.90357 1.26826C5.41749 -0.426749 8.5587 -0.426749 11.0726 1.27271C13.6483 3.0122 14.8364 6.14863 13.3394 8.94695C11.6904 12.0344 9.4141 14.8239 7.44668 17.7601C7.23283 18.0804 6.74336 18.0804 6.52951 17.7601C4.56209 14.8283 2.29054 12.0389 0.641525 8.95585L0.646277 8.9603ZM6.97622 10.1037C8.97689 10.1125 10.7019 8.44423 10.6782 6.51789C10.6592 4.59154 8.8866 2.95437 6.89543 3.0122C4.96603 3.07004 3.36454 4.63158 3.33127 6.4823C3.29326 8.42644 4.97554 10.0992 6.97622 10.1081V10.1037Z" fill="white"/>
</g>
<defs>
<clipPath id="clip0_15_398">
<rect width="14" height="18" fill="white"/>
</clipPath>
</defs>
</svg>
