<svg width="51" height="39" viewBox="0 0 51 39" fill="none" xmlns="http://www.w3.org/2000/svg">
<g id="_&#195;&#144;&#194;&#161;&#195;&#144;&#194;&#187;&#195;&#144;&#194;&#190;&#195;&#144;&#194;&#185;_13" clip-path="url(#clip0_20_35)">
<path id="Vector" d="M43.5374 0.545898H38.4396V36.4044H43.5374V0.545898Z" fill="#07AE23"/>
<path id="Vector_2" d="M40.9885 31.3064V36.4043H50.7968V31.3064H40.9885Z" fill="#07AE23"/>
<path id="Vector_3" d="M29.6712 36.2004C32.4642 36.2004 34.7283 33.9362 34.7283 31.1433C34.7283 28.3503 32.4642 26.0862 29.6712 26.0862C26.8782 26.0862 24.6141 28.3503 24.6141 31.1433C24.6141 33.9362 26.8782 36.2004 29.6712 36.2004Z" stroke="#3AAA35" stroke-width="5" stroke-miterlimit="10"/>
<path id="Vector_4" d="M7.14877 36.2005C9.24912 36.2005 10.9518 34.4978 10.9518 32.3975C10.9518 30.2972 9.24912 28.5945 7.14877 28.5945C5.04842 28.5945 3.34575 30.2972 3.34575 32.3975C3.34575 34.4978 5.04842 36.2005 7.14877 36.2005Z" stroke="#3AAA35" stroke-width="5" stroke-miterlimit="10"/>
<path id="Vector_5" d="M7.71973 3.50269V21.4574" stroke="#3AAA35" stroke-width="5" stroke-miterlimit="10" stroke-linecap="square"/>
<path id="Vector_6" d="M7.71973 3.50269H21.9326" stroke="#3AAA35" stroke-width="5" stroke-miterlimit="10" stroke-linecap="round"/>
<path id="Vector_7" d="M21.9326 3.50269L34.0452 28.5944" stroke="#3AAA35" stroke-width="5" stroke-miterlimit="10" stroke-linecap="round"/>
<path id="Vector_8" d="M26.8674 31.1434H1.96933V17.2058H13.0317L26.8674 31.1434Z" fill="#3AAA35"/>
<path id="Vector_9" d="M25.9294 30.1747H13.2356V21.9875H29.6712L25.9294 30.1747Z" fill="#3AAA35"/>
</g>
<defs>
<clipPath id="clip0_20_35">
<rect width="50" height="38.2035" fill="white" transform="translate(0.796814 0.545898)"/>
</clipPath>
</defs>
</svg>
