<svg width="47" height="47" viewBox="0 0 47 47" fill="none" xmlns="http://www.w3.org/2000/svg">
<g id="_&#195;&#144;&#194;&#161;&#195;&#144;&#194;&#187;&#195;&#144;&#194;&#190;&#195;&#144;&#194;&#185;_13" clip-path="url(#clip0_20_45)">
<path id="Vector" d="M23.7968 22.2195C21.6168 23.4195 15.2168 28.3595 12.3268 32.4095C9.23682 36.7495 7.42682 42.0395 7.42682 42.0395C7.42682 42.0395 6.19682 41.2495 3.39682 36.1995C-1.37318 27.5895 0.576817 16.2495 8.69682 10.6495C18.9068 3.59951 30.8868 2.19951 42.7768 0.939508C45.6301 0.639508 46.8701 1.99284 46.4968 4.99951C45.1168 16.3095 43.5868 27.4695 37.7168 37.3995C33.5368 44.4895 24.0568 47.8295 16.8168 45.9695C11.1068 44.5095 11.0268 44.1395 11.0268 44.1395C11.0268 44.1395 12.6968 38.7195 15.4568 33.9095C17.8068 29.8095 22.6468 24.3795 23.7868 22.2095L23.7968 22.2195Z" fill="#3AAA35"/>
</g>
<defs>
<clipPath id="clip0_20_45">
<rect width="45.92" height="45.74" fill="white" transform="translate(0.836815 0.749512)"/>
</clipPath>
</defs>
</svg>
