<svg width="250" height="160" viewBox="0 0 250 160" fill="none" xmlns="http://www.w3.org/2000/svg">
<g id="logo-footer">
<path id="Vector" d="M64.5 18.6098C94.44 18.0498 124.97 41.7998 125 79.1298C125.03 113.55 98.5 139.92 64.34 139.83C27.49 139.73 3.14 109.4 3.95 77.5698C4.79 44.6998 32.2 18.0798 64.5 18.6098ZM64.3 94.4598V82.4398L15.63 81.4498V87.8298L21.65 88.6798L21.69 86.0798L34.69 87.2298L34.72 90.6798L41.69 91.5198L41.75 87.5898L56.52 88.4998L56.47 93.4198L64.3 94.4598ZM94.21 62.5498L108.26 65.2998L108.29 67.5698L113.44 68.2298L113.38 62.3498L64.48 49.2598V61.8898L71.42 62.5598V57.7898L87.99 61.6498L87.96 64.8098L94.15 65.7398L94.21 62.5498ZM107.84 88.7598C109.36 88.5898 113.44 87.9998 113.44 87.9998C113.44 87.9998 113.43 83.4498 113.43 81.4798C112.4 81.4798 111.63 81.4598 110.86 81.4798C101.12 81.7798 64.31 82.4398 64.31 82.4398V94.4598L71.95 93.5198L71.97 88.7598L87.36 87.4898L87.42 91.5398L93.93 90.7698L93.94 86.9598L107.75 85.8298M15.48 67.9898L22.01 67.1698L22.03 65.0298L34.84 62.3998L34.94 65.4398L41.46 64.5498C41.46 64.5498 41.49 61.0898 41.49 61.0098C41.49 61.0098 53.01 58.6798 57.36 57.8498C57.36 59.6498 57.36 62.7498 57.36 62.7498L64.47 61.8698C64.47 59.1198 64.47 49.2398 64.47 49.2398C64.47 49.2398 54.98 51.7998 50.56 52.9998C39.49 55.9898 26.76 59.5198 15.7 62.5598L15.48 67.9898ZM113.43 77.7998L113.45 71.2398C113.45 71.2398 105.67 70.5398 102.6 70.2498C91.1 69.1898 64.47 66.6998 64.47 66.6998V77.7698H71.7L71.77 73.2598L87.63 74.3298L87.62 77.7898H93.98L94.05 74.4198L108.04 75.4798L108.1 77.7998H113.43ZM64.47 77.7598V66.6998L15.6 71.4198L15.49 77.7398H21.82L21.84 75.4898L35.13 74.7398L35.2 77.7198L41.61 77.5398L41.7 74.4198L57.16 73.3698L57.35 77.7598H64.47ZM41.6 100.88L55.82 104.15L55.78 108.92L64.26 111.94L64.32 99.5098L15.48 91.4998L15.46 97.0198L21.65 98.7498L21.66 96.2698L34.25 99.2198L34.2 102.27L41.56 104.43L41.6 100.88ZM113.44 97.2498V91.5498L64.33 99.5198L64.27 111.95L72.49 109.45L72.52 104.73L87.34 101.08L87.42 104.94L93.66 103.13L93.75 99.5698L107.62 96.3798V99.0298L113.44 97.2498Z" fill="white"/>
<g id="Group">
<path id="Vector_2" d="M143.72 54.8001H139.05V33.2301H130.82V29.3301H151.92V33.2301H143.71L143.72 54.8001Z" stroke="white" stroke-width="2" stroke-miterlimit="10"/>
<path id="Vector_3" d="M160.21 50.8998H172.74V54.7998H155.54V29.3198H172.05V33.2198H160.21V39.8098H170.38V43.7098H160.21V50.8998Z" stroke="white" stroke-width="2" stroke-miterlimit="10"/>
<path id="Vector_4" d="M184.42 34.5598C185.65 36.3498 186.51 37.6298 187.01 38.4098H187.1C187.79 37.3398 188.64 36.0698 189.67 34.5798L193.31 29.3198H198.68L189.81 41.8498L199.06 54.7998H193.77L189.79 49.1098C188.81 47.7098 187.91 46.3898 187.09 45.1498H187C186.14 46.4398 185.23 47.7698 184.29 49.1098L180.31 54.7998H175.02L184.27 41.8498L175.4 29.3198H180.77L184.42 34.5598Z" stroke="white" stroke-width="2" stroke-miterlimit="10"/>
<path id="Vector_5" d="M153.53 66.3198V91.7998H148.86V70.2898H137.97V91.7998H133.3V66.3198H153.53Z" stroke="white" stroke-width="2" stroke-miterlimit="10"/>
<path id="Vector_6" d="M166.67 81.9398C166.25 81.9398 165.84 81.9298 165.43 81.9198C165.02 81.9098 164.64 81.8798 164.29 81.8398V91.7998H159.62V66.3198H166.97C168.2 66.3198 169.28 66.3698 170.2 66.4798C171.12 66.5898 171.94 66.7498 172.67 66.9698C174.41 67.4998 175.75 68.3498 176.69 69.5198C177.63 70.6898 178.1 72.1698 178.1 73.9798C178.1 75.2098 177.85 76.3198 177.34 77.2998C176.83 78.2798 176.09 79.1198 175.11 79.7998C174.13 80.4898 172.94 81.0098 171.53 81.3798C170.11 81.7598 168.49 81.9398 166.67 81.9398ZM164.29 77.9198C164.56 77.9598 164.9 77.9898 165.31 78.0098C165.72 78.0298 166.15 78.0398 166.6 78.0398C167.86 78.0398 168.91 77.9398 169.76 77.7398C170.61 77.5398 171.3 77.2498 171.82 76.8898C172.34 76.5298 172.71 76.0898 172.94 75.5798C173.17 75.0698 173.28 74.4998 173.28 73.8898C173.28 73.1398 173.11 72.4898 172.77 71.9498C172.43 71.4098 171.83 70.9798 170.98 70.6698C170.54 70.5198 169.99 70.4098 169.33 70.3398C168.68 70.2698 167.87 70.2398 166.92 70.2398H164.29V77.9198Z" stroke="white" stroke-width="2" stroke-miterlimit="10"/>
<path id="Vector_7" d="M206.73 79.0601C206.73 81.0001 206.45 82.7801 205.9 84.4001C205.35 86.0201 204.54 87.4101 203.48 88.5801C202.42 89.7501 201.12 90.6601 199.58 91.3001C198.04 91.9501 196.28 92.2701 194.31 92.2701C192.34 92.2701 190.59 91.9501 189.04 91.3001C187.5 90.6501 186.2 89.7501 185.14 88.5801C184.08 87.4101 183.27 86.0201 182.72 84.4001C182.17 82.7801 181.89 81.0001 181.89 79.0601C181.89 77.1201 182.17 75.3401 182.72 73.7201C183.27 72.1001 184.08 70.7101 185.14 69.5401C186.2 68.3701 187.5 67.4601 189.04 66.8201C190.58 66.1701 192.34 65.8501 194.31 65.8501C196.28 65.8501 198.03 66.1701 199.58 66.8201C201.12 67.4701 202.42 68.3801 203.48 69.5401C204.54 70.7101 205.35 72.1001 205.9 73.7201C206.46 75.3401 206.73 77.1201 206.73 79.0601ZM201.91 79.0601C201.91 77.5101 201.72 76.1601 201.34 74.9901C200.96 73.8301 200.43 72.8601 199.76 72.0901C199.09 71.3201 198.29 70.7401 197.36 70.3601C196.43 69.9801 195.42 69.7901 194.31 69.7901C193.2 69.7901 192.19 69.9801 191.26 70.3601C190.33 70.7401 189.53 71.3201 188.86 72.0901C188.19 72.8601 187.66 73.8301 187.28 74.9901C186.9 76.1501 186.71 77.5101 186.71 79.0601C186.71 80.6101 186.9 81.9601 187.28 83.1301C187.66 84.2901 188.19 85.2601 188.86 86.0201C189.53 86.7901 190.33 87.3701 191.26 87.7501C192.19 88.1401 193.2 88.3301 194.31 88.3301C195.42 88.3301 196.43 88.1401 197.36 87.7501C198.29 87.3601 199.09 86.7901 199.76 86.0201C200.43 85.2501 200.96 84.2901 201.34 83.1301C201.72 81.9701 201.91 80.6101 201.91 79.0601Z" stroke="white" stroke-width="2" stroke-miterlimit="10"/>
<path id="Vector_8" d="M224.79 84.9698C225.35 82.9598 226.04 80.8098 226.87 78.5098L231.27 66.3198H237.82V91.7998H233.15V78.8898C233.15 76.9998 233.23 74.7998 233.38 72.2998H233.21C232.99 73.0198 232.74 73.8398 232.45 74.7398C232.16 75.6398 231.85 76.5298 231.54 77.4098L226.27 91.8098H223.26L217.99 77.4098C217.67 76.5298 217.37 75.6498 217.08 74.7398C216.79 73.8298 216.53 73.0298 216.32 72.2998H216.15C216.3 74.6498 216.38 76.8398 216.38 78.8698V91.7998H211.71V66.3198H218.22L222.62 78.4498C223.36 80.4698 224 82.5 224.79 84.9698Z" stroke="white" stroke-width="2" stroke-miterlimit="10"/>
<path id="Vector_9" d="M143.71 128.8H139.05V107.22H130.82V103.32H151.92V107.22H143.71V128.8Z" stroke="white" stroke-width="2" stroke-miterlimit="10"/>
<path id="Vector_10" d="M168.04 122.31H158.44L155.94 128.8H150.97L161.08 103.32H165.35L175.46 128.8H170.53L168.04 122.31ZM163.2 109.46C162.31 112.13 161.51 114.35 160.82 116.14L159.95 118.41H166.54L165.67 116.14C164.98 114.33 164.18 112.11 163.29 109.46H163.2Z" stroke="white" stroke-width="2" stroke-miterlimit="10"/>
<path id="Vector_11" d="M186.13 118.94C185.71 118.94 185.3 118.93 184.89 118.92C184.48 118.91 184.1 118.88 183.75 118.84V128.8H179.08V103.32H186.43C187.66 103.32 188.74 103.37 189.66 103.48C190.58 103.59 191.4 103.75 192.13 103.97C193.87 104.5 195.21 105.35 196.15 106.52C197.09 107.69 197.56 109.17 197.56 110.98C197.56 112.21 197.31 113.32 196.8 114.3C196.29 115.28 195.55 116.12 194.57 116.8C193.59 117.49 192.4 118.01 190.99 118.38C189.57 118.76 187.96 118.94 186.13 118.94ZM183.75 114.92C184.02 114.96 184.36 114.99 184.77 115.01C185.18 115.03 185.61 115.04 186.06 115.04C187.32 115.04 188.37 114.94 189.22 114.74C190.07 114.54 190.76 114.25 191.28 113.89C191.8 113.53 192.17 113.09 192.4 112.58C192.63 112.07 192.74 111.5 192.74 110.89C192.74 110.14 192.57 109.49 192.23 108.95C191.89 108.41 191.29 107.98 190.44 107.67C190 107.52 189.45 107.41 188.79 107.34C188.14 107.27 187.33 107.23 186.38 107.23H183.75V114.92Z" stroke="white" stroke-width="2" stroke-miterlimit="10"/>
<path id="Vector_12" d="M214.04 122.31H204.44L201.94 128.8H196.97L207.08 103.32H211.35L221.46 128.8H216.53L214.04 122.31ZM209.21 109.46C208.32 112.13 207.52 114.35 206.83 116.14L205.96 118.41H212.55L211.68 116.14C210.99 114.33 210.19 112.11 209.3 109.46H209.21Z" stroke="white" stroke-width="2" stroke-miterlimit="10"/>
</g>
<path id="Vector_13" d="M64.47 49.25L64.27 111.94" stroke="white" stroke-miterlimit="10"/>
</g>
</svg>
