<svg width="22" height="29" viewBox="0 0 22 29" fill="none" xmlns="http://www.w3.org/2000/svg">
<g id="navigator" clip-path="url(#clip0_15_393)">
<path id="Vector" d="M1.01562 14.4356C-1.31432 9.96301 0.575024 4.80236 4.5628 2.04284C8.51324 -0.688001 13.4494 -0.688001 17.3999 2.05001C21.4474 4.85253 23.3143 9.90567 20.962 14.4141C18.3707 19.3884 14.7936 23.8824 11.702 28.613C11.3659 29.1291 10.5967 29.1291 10.2607 28.613C7.16905 23.8896 3.59946 19.3955 1.00815 14.4284L1.01562 14.4356ZM10.9627 16.2776C14.1066 16.292 16.8174 13.6041 16.78 10.5006C16.7502 7.39702 13.9647 4.75935 10.8357 4.85253C7.80381 4.94571 5.28718 7.46153 5.2349 10.4432C5.17516 13.5755 7.81874 16.2705 10.9627 16.2848V16.2776Z" fill="#009245"/>
</g>
<defs>
<clipPath id="clip0_15_393">
<rect width="22" height="29" fill="white"/>
</clipPath>
</defs>
</svg>
