<svg width="44" height="44" viewBox="0 0 44 44" fill="none" xmlns="http://www.w3.org/2000/svg">
<g id="_&#195;&#144;&#194;&#161;&#195;&#144;&#194;&#187;&#195;&#144;&#194;&#190;&#195;&#144;&#194;&#185;_13" clip-path="url(#clip0_19_33)">
<path id="Vector" d="M41.1404 19.8257C36.7931 15.6152 32.7036 11.1319 28.2618 7.0322C20.4866 -0.13589 22.5657 0.554496 13.6479 0.571543C10.744 0.571543 9.05146 0.597112 7.36754 0.571543C0.253857 0.48631 0.296814 0.469264 0.322588 7.62883C0.339771 11.4814 0.296814 15.3339 0.296814 19.1864C0.296814 21.2831 0.812299 22.7577 2.20411 24.1129C8.63907 30.369 14.0603 35.7557 19.7392 41.526C22.4369 44.2705 24.9112 44.1682 27.5402 41.526C32.0421 37.0001 36.5611 32.4827 41.1404 28.0251C44.0099 25.2294 43.9927 22.6042 41.1318 19.8342L41.1404 19.8257ZM7.74557 11.4558C5.88982 11.4558 4.38632 9.96421 4.38632 8.12318C4.38632 6.28215 5.88982 4.79057 7.74557 4.79057C9.60131 4.79057 11.1048 6.28215 11.1048 8.12318C11.1048 9.96421 9.60131 11.4558 7.74557 11.4558Z" fill="#07AE23"/>
</g>
<defs>
<clipPath id="clip0_19_33">
<rect width="43" height="43" fill="white" transform="translate(0.296814 0.545898)"/>
</clipPath>
</defs>
</svg>
